<svg width="518" height="462" viewBox="0 0 518 462" fill="none" xmlns="http://www.w3.org/2000/svg">
<mask id="mask0_1058_5380" style="mask-type:alpha" maskUnits="userSpaceOnUse" x="0" y="0" width="518" height="462">
<rect width="518" height="462" rx="15" fill="white"/>
</mask>
<g mask="url(#mask0_1058_5380)">
<g opacity="0.05">
<path d="M926.435 421.776C934.748 422.328 942.147 427.115 946.35 434.309C957.021 452.577 942.467 475.532 921.322 474.844C444.351 459.329 -51.7987 860.64 -137.557 933.281C-144.449 939.119 -154.797 937.191 -159.353 929.392C-162.494 924.016 -161.882 917.336 -157.611 912.804C-110.552 862.871 167.488 580.022 501.234 498.051C652.053 461.005 795.424 413.08 926.435 421.776Z" fill="url(#paint0_linear_1058_5380)"/>
<path d="M868.901 321.362C876.39 321.563 883.034 325.921 886.813 332.389C896.408 348.814 883.264 369.956 864.27 370.986C753.112 377.016 624.199 435.332 474.071 458.599C153.972 508.181 -114.688 823.714 -167.043 888.723C-171.573 894.348 -180.282 893.566 -183.926 887.331C-185.87 884.004 -185.792 879.921 -183.615 876.742C-150.002 827.647 122.537 444.054 447.729 420.558C627.63 407.553 762.971 318.513 868.901 321.362Z" fill="url(#paint1_linear_1058_5380)"/>
<path d="M811.958 224.102C819.301 223.59 825.828 227.982 829.539 234.338C838.959 250.47 825.942 272.571 807.703 276.611C716.886 296.728 594.168 383.907 421.719 383.095C116.959 381.654 -141.777 773.832 -189.664 850.887C-193.304 856.744 -201.9 856.563 -205.379 850.608C-206.943 847.931 -207.187 844.956 -205.714 842.229C-179.3 793.34 83.9412 321.681 395.905 345.955C603.335 362.092 730.588 229.779 811.958 224.102Z" fill="url(#paint2_linear_1058_5380)"/>
<path d="M755.648 128.873C762.592 126.665 769.24 131.088 772.916 137.379C782.253 153.36 769.623 178.992 753.143 187.416C679.521 225.049 560.87 337.305 370.246 309.052C79.6165 265.969 -167.2 727.518 -211.101 814.814C-214.096 820.769 -222.608 821.085 -225.969 815.328C-227.29 813.066 -227.631 810.704 -226.577 808.306C-205.125 759.529 44.9632 207.325 344.697 272.37C574.949 322.328 696.764 147.599 755.648 128.873Z" fill="url(#paint3_linear_1058_5380)"/>
<path d="M696.81 31.9711C702.62 26.3134 709.969 29.6071 714.06 36.6095C724.445 54.387 713.916 92.2493 699.027 106.469C637.671 165.068 520.396 293.121 319.245 235.842C44.1157 157.522 -185.227 667.922 -230.065 775.217C-233.4 783.197 -244.452 783.7 -248.815 776.233C-250.343 773.618 -250.806 770.913 -249.774 768.065C-229.433 711.946 2.45924 92.3913 290.496 193.721C535.275 279.832 655.685 72.018 696.81 31.9711Z" fill="url(#paint4_linear_1058_5380)"/>
<path d="M628.961 -55.0451C634.793 -67.1078 652.734 -68.3786 659.491 -56.8089C665.971 -45.7151 663.973 -16.4776 657.096 -5.62604C613.464 63.2194 492.359 246.692 260.662 149.679C-4.89886 38.5061 -216.251 604.094 -258.036 725.13C-261.06 733.89 -273.023 734.779 -277.697 726.777C-279.168 724.258 -279.679 721.705 -278.851 718.907C-261.524 660.383 -50.1126 -30.8419 230.688 105.433C467.74 220.474 590.599 24.3074 628.961 -55.0451Z" fill="url(#paint5_linear_1058_5380)"/>
<path d="M585.427 -123.895C590.8 -134.636 612.907 -136.584 618.965 -126.214C620.282 -123.96 620.777 -121.553 619.927 -119.085C607.475 -82.9304 485.564 191.077 214.308 80.9738C-30.7763 -18.5216 -235.2 464.82 -294.17 621.518C-301.131 640.016 -326.983 642.403 -336.954 625.339C-340.467 619.328 -341.202 612.41 -338.603 605.952C-305.835 524.518 -71.331 -30.68 198.013 56.7007C423.094 129.723 545.936 -44.9472 585.427 -123.895Z" fill="url(#paint6_linear_1058_5380)"/>
<path d="M544.755 -196.199C550.003 -206.77 570.618 -208.962 576.571 -198.772C577.865 -196.556 578.461 -194.042 577.824 -191.557C566.89 -148.908 441.679 95.2058 181.898 32.6991C-60.5264 -25.6476 -285.717 383.758 -353.138 519.793C-361.984 537.64 -387.583 538.657 -397.629 521.457C-401.834 514.258 -402.192 505.647 -398.226 498.313C-355.682 419.635 -99.0711 -31.8802 165.965 9.0379C381.419 42.3016 506.217 -118.574 544.755 -196.199Z" fill="url(#paint7_linear_1058_5380)"/>
<path d="M505.621 -266.898C510.513 -277.155 529.35 -279.628 535.08 -269.815C536.326 -267.682 536.918 -265.298 536.449 -262.873C525.999 -208.774 394.538 1.85031 150.338 -14.1305C-92.2621 -30.0143 -337.087 308.375 -411.85 421.436C-422.559 437.631 -446.895 437.097 -456.686 420.331C-461.737 411.681 -461.415 401.109 -455.427 393.08C-401.363 320.596 -126.899 -29.5331 135.198 -36.4658C339.085 -41.8563 468.093 -188.218 505.621 -266.898Z" fill="url(#paint8_linear_1058_5380)"/>
</g>
</g>
<defs>
<linearGradient id="paint0_linear_1058_5380" x1="-60.5696" y1="1098.53" x2="979.5" y2="491.073" gradientUnits="userSpaceOnUse">
<stop stop-color="white"/>
<stop offset="0.1518" stop-color="#E4F0FC"/>
<stop offset="0.4762" stop-color="#9FCBF6"/>
<stop offset="0.6435" stop-color="#79B6F2"/>
<stop offset="0.7345" stop-color="#7CB7F2"/>
<stop offset="0.7947" stop-color="#85BCF3"/>
<stop offset="0.8458" stop-color="#94C4F5"/>
<stop offset="0.892" stop-color="#A9D0F7"/>
<stop offset="0.9348" stop-color="#C4DFF9"/>
<stop offset="0.9746" stop-color="#E5F1FD"/>
<stop offset="1" stop-color="white"/>
</linearGradient>
<linearGradient id="paint1_linear_1058_5380" x1="-112.61" y1="1009.43" x2="927.459" y2="401.972" gradientUnits="userSpaceOnUse">
<stop stop-color="white"/>
<stop offset="0.1518" stop-color="#E4F0FC"/>
<stop offset="0.4762" stop-color="#9FCBF6"/>
<stop offset="0.6435" stop-color="#79B6F2"/>
<stop offset="0.7345" stop-color="#7CB7F2"/>
<stop offset="0.7947" stop-color="#85BCF3"/>
<stop offset="0.8458" stop-color="#94C4F5"/>
<stop offset="0.892" stop-color="#A9D0F7"/>
<stop offset="0.9348" stop-color="#C4DFF9"/>
<stop offset="0.9746" stop-color="#E5F1FD"/>
<stop offset="1" stop-color="white"/>
</linearGradient>
<linearGradient id="paint2_linear_1058_5380" x1="-163.287" y1="922.667" x2="876.78" y2="315.211" gradientUnits="userSpaceOnUse">
<stop stop-color="white"/>
<stop offset="0.1518" stop-color="#E4F0FC"/>
<stop offset="0.4762" stop-color="#9FCBF6"/>
<stop offset="0.6435" stop-color="#79B6F2"/>
<stop offset="0.7345" stop-color="#7CB7F2"/>
<stop offset="0.7947" stop-color="#85BCF3"/>
<stop offset="0.8458" stop-color="#94C4F5"/>
<stop offset="0.892" stop-color="#A9D0F7"/>
<stop offset="0.9348" stop-color="#C4DFF9"/>
<stop offset="0.9746" stop-color="#E5F1FD"/>
<stop offset="1" stop-color="white"/>
</linearGradient>
<linearGradient id="paint3_linear_1058_5380" x1="-213.828" y1="836.132" x2="826.238" y2="228.678" gradientUnits="userSpaceOnUse">
<stop stop-color="white"/>
<stop offset="0.1518" stop-color="#E4F0FC"/>
<stop offset="0.4762" stop-color="#9FCBF6"/>
<stop offset="0.6435" stop-color="#79B6F2"/>
<stop offset="0.7345" stop-color="#7CB7F2"/>
<stop offset="0.7947" stop-color="#85BCF3"/>
<stop offset="0.8458" stop-color="#94C4F5"/>
<stop offset="0.892" stop-color="#A9D0F7"/>
<stop offset="0.9348" stop-color="#C4DFF9"/>
<stop offset="0.9746" stop-color="#E5F1FD"/>
<stop offset="1" stop-color="white"/>
</linearGradient>
<linearGradient id="paint4_linear_1058_5380" x1="-266.053" y1="746.717" x2="774.012" y2="139.262" gradientUnits="userSpaceOnUse">
<stop stop-color="white"/>
<stop offset="0.1518" stop-color="#E4F0FC"/>
<stop offset="0.4762" stop-color="#9FCBF6"/>
<stop offset="0.6435" stop-color="#79B6F2"/>
<stop offset="0.7345" stop-color="#7CB7F2"/>
<stop offset="0.7947" stop-color="#85BCF3"/>
<stop offset="0.8458" stop-color="#94C4F5"/>
<stop offset="0.892" stop-color="#A9D0F7"/>
<stop offset="0.9348" stop-color="#C4DFF9"/>
<stop offset="0.9746" stop-color="#E5F1FD"/>
<stop offset="1" stop-color="white"/>
</linearGradient>
<linearGradient id="paint5_linear_1058_5380" x1="-317.288" y1="658.994" x2="722.776" y2="51.5403" gradientUnits="userSpaceOnUse">
<stop stop-color="white"/>
<stop offset="0.1518" stop-color="#E4F0FC"/>
<stop offset="0.4762" stop-color="#9FCBF6"/>
<stop offset="0.6435" stop-color="#79B6F2"/>
<stop offset="0.7345" stop-color="#7CB7F2"/>
<stop offset="0.7947" stop-color="#85BCF3"/>
<stop offset="0.8458" stop-color="#94C4F5"/>
<stop offset="0.892" stop-color="#A9D0F7"/>
<stop offset="0.9348" stop-color="#C4DFF9"/>
<stop offset="0.9746" stop-color="#E5F1FD"/>
<stop offset="1" stop-color="white"/>
</linearGradient>
<linearGradient id="paint6_linear_1058_5380" x1="-353.338" y1="597.276" x2="686.725" y2="-10.1776" gradientUnits="userSpaceOnUse">
<stop stop-color="white"/>
<stop offset="0.1518" stop-color="#E4F0FC"/>
<stop offset="0.4762" stop-color="#9FCBF6"/>
<stop offset="0.6435" stop-color="#79B6F2"/>
<stop offset="0.7345" stop-color="#7CB7F2"/>
<stop offset="0.7947" stop-color="#85BCF3"/>
<stop offset="0.8458" stop-color="#94C4F5"/>
<stop offset="0.892" stop-color="#A9D0F7"/>
<stop offset="0.9348" stop-color="#C4DFF9"/>
<stop offset="0.9746" stop-color="#E5F1FD"/>
<stop offset="1" stop-color="white"/>
</linearGradient>
<linearGradient id="paint7_linear_1058_5380" x1="-388.941" y1="536.324" x2="651.123" y2="-71.1304" gradientUnits="userSpaceOnUse">
<stop stop-color="white"/>
<stop offset="0.1518" stop-color="#E4F0FC"/>
<stop offset="0.4762" stop-color="#9FCBF6"/>
<stop offset="0.6435" stop-color="#79B6F2"/>
<stop offset="0.7345" stop-color="#7CB7F2"/>
<stop offset="0.7947" stop-color="#85BCF3"/>
<stop offset="0.8458" stop-color="#94C4F5"/>
<stop offset="0.892" stop-color="#A9D0F7"/>
<stop offset="0.9348" stop-color="#C4DFF9"/>
<stop offset="0.9746" stop-color="#E5F1FD"/>
<stop offset="1" stop-color="white"/>
</linearGradient>
<linearGradient id="paint8_linear_1058_5380" x1="-424.81" y1="474.914" x2="615.256" y2="-132.54" gradientUnits="userSpaceOnUse">
<stop stop-color="white"/>
<stop offset="0.1518" stop-color="#E4F0FC"/>
<stop offset="0.4762" stop-color="#9FCBF6"/>
<stop offset="0.6435" stop-color="#79B6F2"/>
<stop offset="0.7345" stop-color="#7CB7F2"/>
<stop offset="0.7947" stop-color="#85BCF3"/>
<stop offset="0.8458" stop-color="#94C4F5"/>
<stop offset="0.892" stop-color="#A9D0F7"/>
<stop offset="0.9348" stop-color="#C4DFF9"/>
<stop offset="0.9746" stop-color="#E5F1FD"/>
<stop offset="1" stop-color="white"/>
</linearGradient>
</defs>
</svg>
