<svg width="38" height="39" viewBox="0 0 38 39" fill="none" xmlns="http://www.w3.org/2000/svg">
<rect y="0.5" width="38" height="38" rx="19" fill="#2F74FA"/>
<path d="M15.832 21.5947V14.5469H17.1445V21.5947C17.1445 22.251 17.0101 22.8047 16.7412 23.2559C16.4723 23.707 16.1009 24.0511 15.627 24.2881C15.1576 24.5205 14.6175 24.6367 14.0068 24.6367C13.3962 24.6367 12.8538 24.5319 12.3799 24.3223C11.9059 24.1126 11.5345 23.7936 11.2656 23.3652C10.9967 22.9368 10.8623 22.3968 10.8623 21.7451H12.1816C12.1816 22.1644 12.2591 22.5085 12.4141 22.7773C12.569 23.0462 12.7832 23.2445 13.0566 23.3721C13.3346 23.4997 13.6514 23.5635 14.0068 23.5635C14.3532 23.5635 14.6631 23.4906 14.9365 23.3447C15.2145 23.1943 15.4333 22.9733 15.5928 22.6816C15.7523 22.3854 15.832 22.0231 15.832 21.5947ZM22.0732 24.5H19.9951L20.0088 23.4268H22.0732C22.7842 23.4268 23.3766 23.2786 23.8506 22.9824C24.3245 22.6816 24.68 22.2624 24.917 21.7246C25.1585 21.1823 25.2793 20.5488 25.2793 19.8242V19.2158C25.2793 18.6462 25.2109 18.1403 25.0742 17.6982C24.9375 17.2516 24.737 16.8757 24.4727 16.5703C24.2083 16.2604 23.8848 16.0257 23.502 15.8662C23.1237 15.7067 22.6885 15.627 22.1963 15.627H19.9541V14.5469H22.1963C22.848 14.5469 23.4427 14.6562 23.9805 14.875C24.5182 15.0892 24.9808 15.4014 25.3682 15.8115C25.7601 16.2171 26.0609 16.7093 26.2705 17.2881C26.4801 17.8623 26.585 18.5094 26.585 19.2295V19.8242C26.585 20.5443 26.4801 21.1937 26.2705 21.7725C26.0609 22.3467 25.7578 22.8366 25.3613 23.2422C24.9694 23.6478 24.4954 23.96 23.9395 24.1787C23.388 24.3929 22.766 24.5 22.0732 24.5ZM20.6992 14.5469V24.5H19.3799V14.5469H20.6992Z" fill="white"/>
</svg>
