<svg width="18" height="19" viewBox="0 0 18 19" fill="none" xmlns="http://www.w3.org/2000/svg">
<path fill-rule="evenodd" clip-rule="evenodd" d="M5.66602 0.416016C6.12626 0.416016 6.49935 0.789111 6.49935 1.24935V1.66602H11.4993V1.24935C11.4993 0.789111 11.8724 0.416016 12.3327 0.416016C12.7929 0.416016 13.166 0.789111 13.166 1.24935V1.66737C13.5623 1.67009 13.9085 1.67827 14.2092 1.70284C14.6776 1.74112 15.1082 1.82325 15.5127 2.02932C16.1398 2.34891 16.6498 2.85884 16.9693 3.48605C17.1754 3.89049 17.2576 4.32108 17.2958 4.78949C17.3327 5.24048 17.3327 5.79412 17.3327 6.46492V13.5338C17.3327 14.2046 17.3327 14.7582 17.2958 15.2092C17.2576 15.6776 17.1754 16.1082 16.9693 16.5127C16.6498 17.1398 16.1398 17.6498 15.5127 17.9693C15.1082 18.1754 14.6776 18.2576 14.2092 18.2958C13.7582 18.3327 13.2046 18.3327 12.5338 18.3327H5.46492C4.79412 18.3327 4.24048 18.3327 3.78949 18.2958C3.32108 18.2576 2.89049 18.1754 2.48605 17.9693C1.85884 17.6498 1.34891 17.1398 1.02932 16.5127C0.823249 16.1082 0.741116 15.6776 0.702841 15.2092C0.665999 14.7582 0.666008 14.2046 0.666016 13.5338V6.46493C0.666008 5.79412 0.665999 5.24049 0.702841 4.78949C0.741116 4.32108 0.823249 3.89049 1.02932 3.48605C1.34891 2.85884 1.85884 2.34891 2.48605 2.02932C2.89049 1.82325 3.32108 1.74112 3.78949 1.70284C4.09017 1.67827 4.43647 1.67009 4.83268 1.66737V1.24935C4.83268 0.789111 5.20578 0.416016 5.66602 0.416016ZM4.83268 3.33415C4.46141 3.33676 4.16987 3.34398 3.92522 3.36397C3.55987 3.39382 3.37303 3.44793 3.2427 3.51434C2.9291 3.67412 2.67412 3.9291 2.51434 4.2427C2.44793 4.37303 2.39382 4.55987 2.36397 4.92522C2.33333 5.30029 2.33268 5.78553 2.33268 6.49935V6.66602H15.666V6.49935C15.666 5.78553 15.6653 5.30029 15.6347 4.92522C15.6048 4.55987 15.5508 4.37303 15.4843 4.2427C15.3246 3.9291 15.0696 3.67412 14.756 3.51434C14.6257 3.44793 14.4388 3.39382 14.0735 3.36397C13.8288 3.34398 13.5373 3.33676 13.166 3.33415V3.74935C13.166 4.20958 12.7929 4.58268 12.3327 4.58268C11.8724 4.58268 11.4993 4.20958 11.4993 3.74935V3.33268H6.49935V3.74935C6.49935 4.20958 6.12626 4.58268 5.66602 4.58268C5.20578 4.58268 4.83268 4.20958 4.83268 3.74935V3.33415ZM15.666 8.33268H2.33268V13.4993C2.33268 14.2132 2.33333 14.6984 2.36397 15.0735C2.39382 15.4388 2.44793 15.6257 2.51434 15.756C2.67412 16.0696 2.9291 16.3246 3.2427 16.4843C3.37303 16.5508 3.55987 16.6048 3.92522 16.6347C4.30029 16.6653 4.78553 16.666 5.49935 16.666H12.4993C13.2132 16.666 13.6984 16.6653 14.0735 16.6347C14.4388 16.6048 14.6257 16.5508 14.756 16.4843C15.0696 16.3246 15.3246 16.0696 15.4843 15.756C15.5508 15.6257 15.6048 15.4388 15.6347 15.0735C15.6653 14.6984 15.666 14.2132 15.666 13.4993V8.33268Z" fill="#1A3D7C"/>
</svg>
