<svg width="59" height="59" viewBox="0 0 59 59" fill="none" xmlns="http://www.w3.org/2000/svg">
<path d="M29.5002 7.98926C29.9892 7.98926 30.4581 8.18351 30.8039 8.52928C31.1497 8.87505 31.3439 9.34401 31.3439 9.83301C31.3439 10.322 31.1497 10.791 30.8039 11.1367C30.4581 11.4825 29.9892 11.6768 29.5002 11.6768C24.7732 11.6768 20.2399 13.5545 16.8975 16.897C13.555 20.2394 11.6772 24.7727 11.6772 29.4997C11.6772 34.2266 13.555 38.7599 16.8975 42.1024C20.2399 45.4448 24.7732 47.3226 29.5002 47.3226C29.9892 47.3226 30.4581 47.5168 30.8039 47.8626C31.1497 48.2084 31.3439 48.6773 31.3439 49.1663C31.3439 49.6553 31.1497 50.1243 30.8039 50.4701C30.4581 50.8158 29.9892 51.0101 29.5002 51.0101C23.7952 51.0101 18.324 48.7438 14.29 44.7098C10.256 40.6758 7.98975 35.2046 7.98975 29.4997C7.98975 23.7948 10.256 18.3235 14.29 14.2895C18.324 10.2555 23.7952 7.98926 29.5002 7.98926Z" fill="#2F74FA"/>
<path d="M40.4889 23.4278C40.1632 23.0783 39.9859 22.616 39.9944 22.1384C40.0028 21.6607 40.1963 21.205 40.5341 20.8672C40.8719 20.5294 41.3276 20.3359 41.8053 20.3274C42.283 20.319 42.7452 20.4963 43.0947 20.822L50.4697 28.197C50.815 28.5427 51.009 29.0113 51.009 29.4999C51.009 29.9885 50.815 30.4571 50.4697 30.8028L43.0947 38.1778C42.926 38.359 42.7224 38.5043 42.4962 38.605C42.2701 38.7058 42.0259 38.76 41.7784 38.7644C41.5308 38.7687 41.2849 38.7232 41.0553 38.6305C40.8257 38.5377 40.6172 38.3997 40.4421 38.2246C40.267 38.0495 40.129 37.841 40.0363 37.6114C39.9435 37.3818 39.898 37.1359 39.9024 36.8884C39.9067 36.6408 39.9609 36.3967 40.0617 36.1705C40.1625 35.9443 40.3078 35.7408 40.4889 35.572L44.7172 31.3437H24.5835C24.0945 31.3437 23.6255 31.1494 23.2798 30.8036C22.934 30.4579 22.7397 29.9889 22.7397 29.4999C22.7397 29.0109 22.934 28.542 23.2798 28.1962C23.6255 27.8504 24.0945 27.6562 24.5835 27.6562H44.7172L40.4889 23.4278Z" fill="#2F74FA"/>
</svg>
