<svg width="172" height="168" viewBox="0 0 172 168" fill="none" xmlns="http://www.w3.org/2000/svg">
<circle cx="79.5592" cy="81.672" r="56.9748" fill="#FCF4F5"/>
<path d="M82.1034 23.2233C82.005 21.6236 80.6658 20.3766 79.0657 20.4676C71.1193 20.9194 63.3783 22.7532 56.2214 25.8878C48.2077 29.3975 41.0936 34.4648 35.3112 40.7817C29.5288 47.0985 25.1989 54.5331 22.5846 62.6337C20.2591 69.8393 19.3342 77.4381 19.8461 85.0623C19.9531 86.6572 21.3557 87.8244 22.9509 87.7231L24.5135 87.6239C26.2259 87.5152 27.4902 85.9947 27.3952 84.2814C27.0327 77.7449 27.8631 71.2392 29.8573 65.0601C32.171 57.891 36.003 51.3114 41.1204 45.721C46.2378 40.1305 52.5338 35.646 59.6259 32.5399C65.7774 29.8457 72.4164 28.2373 79.236 27.7806C80.9437 27.6662 82.288 26.2237 82.1829 24.5154L82.1034 23.2233Z" fill="#E9ECF1"/>
<path d="M71.6366 24.4402C71.3696 22.5407 72.6929 20.774 74.6046 20.6166C85.5997 19.7115 96.6574 21.8341 106.565 26.7864C117.511 32.2574 126.536 40.9237 132.447 51.638C138.358 62.3523 140.875 74.6091 139.666 86.7858C138.456 98.9624 133.576 110.485 125.673 119.827C117.77 129.169 107.216 135.89 95.408 139.101C83.6001 142.311 71.0956 141.86 59.5499 137.806C48.0043 133.752 37.9622 126.288 30.7531 116.4C24.2275 107.45 20.3018 96.8969 19.3724 85.9039C19.2109 83.9926 20.7339 82.3948 22.6513 82.3433C24.5688 82.2918 26.1532 83.8066 26.3291 85.7166C27.2117 95.3021 30.6695 104.495 36.3658 112.308C42.7459 121.058 51.6332 127.665 61.851 131.252C72.0689 134.84 83.1355 135.239 93.5854 132.398C104.035 129.556 113.376 123.608 120.37 115.34C127.365 107.073 131.683 96.8755 132.753 86.0991C133.824 75.3228 131.596 64.4755 126.365 54.9933C121.134 45.5112 113.146 37.8415 103.459 32.9997C94.8108 28.6767 85.1719 26.7901 75.5727 27.5082C73.6599 27.6512 71.9035 26.3397 71.6366 24.4402Z" fill="#DC3545"/>
<path d="M65.499 70.6133V92H61.6172V75.1396L56.4756 76.8389V73.7041L65.0596 70.6133H65.499ZM83.4434 70.4961H83.9707V73.6162H83.7217C82.54 73.6162 81.5 73.7969 80.6016 74.1582C79.7129 74.5195 78.9707 75.0273 78.375 75.6816C77.7891 76.3262 77.3447 77.0928 77.042 77.9814C76.7393 78.8604 76.5879 79.8223 76.5879 80.8672V84.3242C76.5879 85.1348 76.6709 85.8477 76.8369 86.4629C77.0127 87.0684 77.252 87.5811 77.5547 88.001C77.8672 88.4111 78.2285 88.7188 78.6387 88.9238C79.0586 89.1289 79.5176 89.2314 80.0156 89.2314C80.5137 89.2314 80.9629 89.1289 81.3633 88.9238C81.7637 88.7188 82.1055 88.4307 82.3887 88.0596C82.6816 87.6787 82.9014 87.2344 83.0479 86.7266C83.2041 86.2188 83.2822 85.6621 83.2822 85.0566C83.2822 84.4609 83.209 83.9092 83.0625 83.4014C82.916 82.8936 82.7012 82.4492 82.418 82.0684C82.1348 81.6777 81.7832 81.3799 81.3633 81.1748C80.9531 80.96 80.4844 80.8525 79.957 80.8525C79.2734 80.8525 78.6631 81.0137 78.126 81.3359C77.5889 81.6484 77.1641 82.0586 76.8516 82.5664C76.5391 83.0742 76.3682 83.6113 76.3389 84.1777L75.0352 83.5332C75.084 82.7031 75.2598 81.9414 75.5625 81.248C75.875 80.5547 76.29 79.9492 76.8076 79.4316C77.335 78.9141 77.9551 78.5137 78.668 78.2305C79.3906 77.9473 80.1914 77.8057 81.0703 77.8057C82.0859 77.8057 82.9746 78.001 83.7363 78.3916C84.498 78.7725 85.1279 79.2949 85.626 79.959C86.1338 80.623 86.5146 81.3896 86.7686 82.2588C87.0225 83.1182 87.1494 84.0264 87.1494 84.9834C87.1494 86.0088 86.9834 86.9658 86.6514 87.8545C86.3291 88.7432 85.8604 89.5195 85.2451 90.1836C84.6299 90.8477 83.8877 91.3652 83.0186 91.7363C82.1494 92.1074 81.1729 92.293 80.0889 92.293C78.9463 92.293 77.9209 92.0781 77.0127 91.6484C76.1143 91.2188 75.3428 90.623 74.6982 89.8613C74.0537 89.0996 73.5605 88.2109 73.2188 87.1953C72.877 86.1797 72.7061 85.0811 72.7061 83.8994V82.3467C72.7061 80.6768 72.9355 79.124 73.3945 77.6885C73.8535 76.2529 74.5322 74.998 75.4307 73.9238C76.3389 72.8398 77.4619 72 78.7998 71.4043C80.1377 70.7988 81.6855 70.4961 83.4434 70.4961ZM100.582 70.4961H101.109V73.6162H100.86C99.6787 73.6162 98.6387 73.7969 97.7402 74.1582C96.8516 74.5195 96.1094 75.0273 95.5137 75.6816C94.9277 76.3262 94.4834 77.0928 94.1807 77.9814C93.8779 78.8604 93.7266 79.8223 93.7266 80.8672V84.3242C93.7266 85.1348 93.8096 85.8477 93.9756 86.4629C94.1514 87.0684 94.3906 87.5811 94.6934 88.001C95.0059 88.4111 95.3672 88.7188 95.7773 88.9238C96.1973 89.1289 96.6562 89.2314 97.1543 89.2314C97.6523 89.2314 98.1016 89.1289 98.502 88.9238C98.9023 88.7188 99.2441 88.4307 99.5273 88.0596C99.8203 87.6787 100.04 87.2344 100.187 86.7266C100.343 86.2188 100.421 85.6621 100.421 85.0566C100.421 84.4609 100.348 83.9092 100.201 83.4014C100.055 82.8936 99.8398 82.4492 99.5566 82.0684C99.2734 81.6777 98.9219 81.3799 98.502 81.1748C98.0918 80.96 97.623 80.8525 97.0957 80.8525C96.4121 80.8525 95.8018 81.0137 95.2646 81.3359C94.7275 81.6484 94.3027 82.0586 93.9902 82.5664C93.6777 83.0742 93.5068 83.6113 93.4775 84.1777L92.1738 83.5332C92.2227 82.7031 92.3984 81.9414 92.7012 81.248C93.0137 80.5547 93.4287 79.9492 93.9463 79.4316C94.4736 78.9141 95.0938 78.5137 95.8066 78.2305C96.5293 77.9473 97.3301 77.8057 98.209 77.8057C99.2246 77.8057 100.113 78.001 100.875 78.3916C101.637 78.7725 102.267 79.2949 102.765 79.959C103.272 80.623 103.653 81.3896 103.907 82.2588C104.161 83.1182 104.288 84.0264 104.288 84.9834C104.288 86.0088 104.122 86.9658 103.79 87.8545C103.468 88.7432 102.999 89.5195 102.384 90.1836C101.769 90.8477 101.026 91.3652 100.157 91.7363C99.2881 92.1074 98.3115 92.293 97.2275 92.293C96.085 92.293 95.0596 92.0781 94.1514 91.6484C93.2529 91.2188 92.4814 90.623 91.8369 89.8613C91.1924 89.0996 90.6992 88.2109 90.3574 87.1953C90.0156 86.1797 89.8447 85.0811 89.8447 83.8994V82.3467C89.8447 80.6768 90.0742 79.124 90.5332 77.6885C90.9922 76.2529 91.6709 74.998 92.5693 73.9238C93.4775 72.8398 94.6006 72 95.9385 71.4043C97.2764 70.7988 98.8242 70.4961 100.582 70.4961Z" fill="#DC3545"/>
</svg>
