<svg width="226" height="43" viewBox="0 0 226 43" fill="none" xmlns="http://www.w3.org/2000/svg">
<path d="M22.4466 2.38466C22.7918 1.57329 23.9418 1.5733 24.287 2.38467L29.0419 13.5616C29.1916 13.9132 29.5286 14.1489 29.9102 14.1687L42.8267 14.8402C43.7613 14.8887 44.123 16.0798 43.3733 16.6399L33.4986 24.0174C33.1655 24.2663 33.0211 24.6955 33.1362 25.0951L36.4078 36.4598C36.6578 37.3282 35.719 38.0565 34.94 37.5985L23.8737 31.0915C23.5608 30.9076 23.1728 30.9076 22.86 31.0915L11.7937 37.5985C11.0146 38.0565 10.0758 37.3282 10.3258 36.4598L13.5975 25.0951C13.7125 24.6955 13.5682 24.2663 13.235 24.0174L3.36035 16.6399C2.61062 16.0798 2.97235 14.8887 3.90696 14.8402L16.8234 14.1687C17.2051 14.1489 17.5421 13.9132 17.6917 13.5616L22.4466 2.38466Z" fill="#FBBA1D"/>
<path d="M67.1498 2.38466C67.4949 1.57329 68.645 1.5733 68.9901 2.38467L73.7451 13.5616C73.8947 13.9132 74.2317 14.1489 74.6133 14.1687L87.5298 14.8402C88.4644 14.8887 88.8261 16.0798 88.0764 16.6399L78.2018 24.0174C77.8686 24.2663 77.7243 24.6955 77.8393 25.0951L81.1109 36.4598C81.3609 37.3282 80.4221 38.0565 79.6431 37.5985L68.5768 31.0915C68.2639 30.9076 67.8759 30.9076 67.5631 31.0915L56.4968 37.5985C55.7178 38.0565 54.7789 37.3282 55.0289 36.4598L58.3006 25.0951C58.4156 24.6955 58.2713 24.2663 57.9381 24.0174L48.0635 16.6399C47.3137 16.0798 47.6755 14.8887 48.6101 14.8402L61.5265 14.1687C61.9082 14.1489 62.2452 13.9132 62.3948 13.5616L67.1498 2.38466Z" fill="#FBBA1D"/>
<path d="M111.848 2.38466C112.193 1.57329 113.343 1.5733 113.688 2.38467L118.443 13.5616C118.593 13.9132 118.93 14.1489 119.312 14.1687L132.228 14.8402C133.163 14.8887 133.524 16.0798 132.775 16.6399L122.9 24.0174C122.567 24.2663 122.423 24.6955 122.538 25.0951L125.809 36.4598C126.059 37.3282 125.12 38.0565 124.341 37.5985L113.275 31.0915C112.962 30.9076 112.574 30.9076 112.261 31.0915L101.195 37.5985C100.416 38.0565 99.4772 37.3282 99.7272 36.4598L102.999 25.0951C103.114 24.6955 102.97 24.2663 102.636 24.0174L92.7617 16.6399C92.012 16.0798 92.3737 14.8887 93.3083 14.8402L106.225 14.1687C106.606 14.1489 106.943 13.9132 107.093 13.5616L111.848 2.38466Z" fill="#FBBA1D"/>
<path d="M156.551 2.38466C156.896 1.57329 158.046 1.5733 158.392 2.38467L163.146 13.5616C163.296 13.9132 163.633 14.1489 164.015 14.1687L176.931 14.8402C177.866 14.8887 178.228 16.0798 177.478 16.6399L167.603 24.0174C167.27 24.2663 167.126 24.6955 167.241 25.0951L170.512 36.4598C170.762 37.3282 169.823 38.0565 169.044 37.5985L157.978 31.0915C157.665 30.9076 157.277 30.9076 156.964 31.0915L145.898 37.5985C145.119 38.0565 144.18 37.3282 144.43 36.4598L147.702 25.0951C147.817 24.6955 147.673 24.2663 147.339 24.0174L137.465 16.6399C136.715 16.0798 137.077 14.8887 138.011 14.8402L150.928 14.1687C151.31 14.1489 151.647 13.9132 151.796 13.5616L156.551 2.38466Z" fill="#FBBA1D"/>
<path d="M201.254 2.38466C201.599 1.57329 202.749 1.5733 203.095 2.38467L207.85 13.5616C207.999 13.9132 208.336 14.1489 208.718 14.1687L221.634 14.8402C222.569 14.8887 222.931 16.0798 222.181 16.6399L212.306 24.0174C211.973 24.2663 211.829 24.6955 211.944 25.0951L215.215 36.4598C215.465 37.3282 214.527 38.0565 213.748 37.5985L202.681 31.0915C202.368 30.9076 201.98 30.9076 201.668 31.0915L190.601 37.5985C189.822 38.0565 188.883 37.3282 189.133 36.4598L192.405 25.0951C192.52 24.6955 192.376 24.2663 192.043 24.0174L182.168 16.6399C181.418 16.0798 181.78 14.8887 182.715 14.8402L195.631 14.1687C196.013 14.1489 196.35 13.9132 196.499 13.5616L201.254 2.38466Z" fill="#FBBA1D"/>
</svg>
