<svg width="266" height="65" viewBox="0 0 266 65" fill="none" xmlns="http://www.w3.org/2000/svg">
<path d="M88.0576 14.9132C86.7512 11.4807 88.4707 7.62202 91.9642 6.48881C115.816 -1.24814 141.418 -2.09786 165.806 4.1095C192.346 10.8647 216.154 25.6481 233.978 46.4407C251.801 67.2332 262.772 93.021 265.391 120.282C267.797 145.332 263.044 170.503 251.752 192.892C250.098 196.171 246.022 197.281 242.829 195.465C239.637 193.649 238.538 189.597 240.174 186.309C250.123 166.308 254.296 143.877 252.151 121.554C249.795 97.0189 239.921 73.8099 223.88 55.0966C207.839 36.3833 186.412 23.0782 162.525 16.9985C140.792 11.4668 117.987 12.1623 96.7008 18.9366C93.201 20.0504 89.3639 18.3457 88.0576 14.9132Z" fill="#EFEFEF"/>
<path d="M23.7797 196.524C20.6049 198.37 16.5182 197.3 14.8327 194.037C3.37058 171.847 -1.63261 146.832 0.467794 121.855C2.75431 94.6648 13.3484 68.836 30.8131 47.8716C48.2779 26.9072 71.7681 11.8217 98.0978 4.66125C122.284 -1.91639 147.792 -1.5142 171.687 5.751C175.201 6.81936 176.992 10.6455 175.749 14.1016C174.507 17.5577 170.702 19.3331 167.182 18.2843C145.86 11.9307 123.141 11.6336 101.588 17.4951C77.8913 23.9395 56.7501 37.5165 41.0318 56.3844C25.3135 75.2524 15.7789 98.4984 13.721 122.969C11.8493 145.227 16.2453 167.518 26.346 187.342C28.0134 190.614 26.9545 194.677 23.7797 196.524Z" fill="#2F74FA"/>
</svg>
