<svg width="18" height="19" viewBox="0 0 18 19" fill="none" xmlns="http://www.w3.org/2000/svg">
<path d="M9 4.4375C9 4.28832 8.94074 4.14524 8.83525 4.03975C8.72976 3.93426 8.58668 3.875 8.4375 3.875C8.28832 3.875 8.14524 3.93426 8.03975 4.03975C7.93426 4.14524 7.875 4.28832 7.875 4.4375V10.625C7.87503 10.7241 7.90127 10.8215 7.95106 10.9073C8.00084 10.993 8.07241 11.0641 8.1585 11.1132L12.096 13.3632C12.2252 13.4331 12.3766 13.4496 12.5179 13.4093C12.6591 13.369 12.779 13.275 12.8518 13.1475C12.9247 13.0199 12.9448 12.869 12.9078 12.7268C12.8709 12.5847 12.7798 12.4626 12.654 12.3868L9 10.2987V4.4375Z" fill="black"/>
<path d="M9 18.5C11.3869 18.5 13.6761 17.5518 15.364 15.864C17.0518 14.1761 18 11.8869 18 9.5C18 7.11305 17.0518 4.82387 15.364 3.13604C13.6761 1.44821 11.3869 0.5 9 0.5C6.61305 0.5 4.32387 1.44821 2.63604 3.13604C0.948212 4.82387 0 7.11305 0 9.5C0 11.8869 0.948212 14.1761 2.63604 15.864C4.32387 17.5518 6.61305 18.5 9 18.5ZM16.875 9.5C16.875 11.5886 16.0453 13.5916 14.5685 15.0685C13.0916 16.5453 11.0886 17.375 9 17.375C6.91142 17.375 4.90838 16.5453 3.43153 15.0685C1.95468 13.5916 1.125 11.5886 1.125 9.5C1.125 7.41142 1.95468 5.40838 3.43153 3.93153C4.90838 2.45468 6.91142 1.625 9 1.625C11.0886 1.625 13.0916 2.45468 14.5685 3.93153C16.0453 5.40838 16.875 7.41142 16.875 9.5Z" fill="black"/>
</svg>
