<svg width="26" height="26" viewBox="0 0 26 26" fill="none" xmlns="http://www.w3.org/2000/svg">
<path d="M15.6306 20.7886V13.7734C15.6306 13.5408 15.5382 13.3178 15.3737 13.1533C15.2093 12.9889 14.9862 12.8965 14.7537 12.8965H11.246C11.0135 12.8965 10.7904 12.9889 10.626 13.1533C10.4615 13.3178 10.3691 13.5408 10.3691 13.7734V20.7886" stroke="#1A3D7C" stroke-width="1.5" stroke-linecap="round" stroke-linejoin="round"/>
<path d="M5.10742 11.1427C5.10736 10.8876 5.16296 10.6355 5.27034 10.4041C5.37772 10.1727 5.5343 9.96746 5.72915 9.80278L11.8675 4.54225C12.184 4.27471 12.5851 4.12793 12.9995 4.12793C13.414 4.12793 13.8151 4.27471 14.1316 4.54225L20.2699 9.80278C20.4648 9.96746 20.6214 10.1727 20.7287 10.4041C20.8361 10.6355 20.8917 10.8876 20.8917 11.1427V19.0348C20.8917 19.4999 20.7069 19.946 20.378 20.2749C20.0491 20.6038 19.603 20.7886 19.1379 20.7886H6.86123C6.39609 20.7886 5.95 20.6038 5.6211 20.2749C5.2922 19.946 5.10742 19.4999 5.10742 19.0348V11.1427Z" stroke="#1A3D7C" stroke-width="1.5" stroke-linecap="round" stroke-linejoin="round"/>
</svg>
