<svg width="26" height="26" viewBox="0 0 26 26" fill="none" xmlns="http://www.w3.org/2000/svg">
<path d="M15.6308 20.7886V13.7734C15.6308 13.5408 15.5384 13.3178 15.374 13.1533C15.2095 12.9889 14.9865 12.8965 14.7539 12.8965H11.2463C11.0137 12.8965 10.7907 12.9889 10.6262 13.1533C10.4618 13.3178 10.3694 13.5408 10.3694 13.7734V20.7886" stroke="#2F74FA" stroke-width="1.5" stroke-linecap="round" stroke-linejoin="round"/>
<path d="M5.10791 11.1427C5.10785 10.8876 5.16345 10.6355 5.27083 10.4041C5.37821 10.1727 5.53478 9.96746 5.72963 9.80278L11.8679 4.54225C12.1845 4.27471 12.5856 4.12793 13 4.12793C13.4145 4.12793 13.8156 4.27471 14.1321 4.54225L20.2704 9.80278C20.4653 9.96746 20.6219 10.1727 20.7292 10.4041C20.8366 10.6355 20.8922 10.8876 20.8922 11.1427V19.0348C20.8922 19.4999 20.7074 19.946 20.3785 20.2749C20.0496 20.6038 19.6035 20.7886 19.1383 20.7886H6.86171C6.39658 20.7886 5.95049 20.6038 5.62159 20.2749C5.29269 19.946 5.10791 19.4999 5.10791 19.0348V11.1427Z" stroke="#2F74FA" stroke-width="1.5" stroke-linecap="round" stroke-linejoin="round"/>
</svg>
