<svg width="13" height="15" viewBox="0 0 13 15" fill="none" xmlns="http://www.w3.org/2000/svg">
<path d="M5.13158 2.4375V2.625H7.86842V2.4375C7.86842 2.03968 7.72425 1.65814 7.46762 1.37684C7.21099 1.09554 6.86293 0.9375 6.5 0.9375C6.13707 0.9375 5.78901 1.09554 5.53238 1.37684C5.27575 1.65814 5.13158 2.03968 5.13158 2.4375ZM4.27632 2.625V2.4375C4.27632 1.79103 4.5106 1.17105 4.92762 0.713927C5.34464 0.256807 5.91024 0 6.5 0C7.08976 0 7.65536 0.256807 8.07238 0.713927C8.4894 1.17105 8.72368 1.79103 8.72368 2.4375V2.625H12.5724C12.6858 2.625 12.7946 2.67439 12.8748 2.76229C12.9549 2.8502 13 2.96943 13 3.09375C13 3.21807 12.9549 3.3373 12.8748 3.42521C12.7946 3.51311 12.6858 3.5625 12.5724 3.5625H11.5744L10.8902 12.5085C10.8383 13.1879 10.5553 13.821 10.0975 14.2825C9.63972 14.7439 9.04047 15 8.41853 15H4.58147C3.95959 14.9999 3.36042 14.7438 2.9027 14.2823C2.44497 13.8209 2.16209 13.1878 2.11011 12.5085L1.42589 3.5625H0.427632C0.314217 3.5625 0.205447 3.51311 0.12525 3.42521C0.0450539 3.3373 0 3.21807 0 3.09375C0 2.96943 0.0450539 2.8502 0.12525 2.76229C0.205447 2.67439 0.314217 2.625 0.427632 2.625H4.27632ZM2.96229 12.4301C2.99634 12.8752 3.18168 13.29 3.48157 13.5923C3.78147 13.8947 4.17403 14.0625 4.58147 14.0625H8.41853C8.82603 14.0626 9.21868 13.8948 9.51864 13.5924C9.81861 13.2901 10.004 12.8752 10.0381 12.4301L10.7161 3.5625H2.28389L2.96229 12.4301ZM5.64474 6.09375C5.64474 6.03219 5.63368 5.97124 5.61219 5.91437C5.59069 5.8575 5.5592 5.80582 5.51949 5.76229C5.47978 5.71877 5.43264 5.68424 5.38075 5.66068C5.32887 5.63712 5.27326 5.625 5.21711 5.625C5.16095 5.625 5.10534 5.63712 5.05346 5.66068C5.00158 5.68424 4.95443 5.71877 4.91472 5.76229C4.87501 5.80582 4.84352 5.8575 4.82203 5.91437C4.80053 5.97124 4.78947 6.03219 4.78947 6.09375V11.5312C4.78947 11.5928 4.80053 11.6538 4.82203 11.7106C4.84352 11.7675 4.87501 11.8192 4.91472 11.8627C4.95443 11.9062 5.00158 11.9408 5.05346 11.9643C5.10534 11.9879 5.16095 12 5.21711 12C5.27326 12 5.32887 11.9879 5.38075 11.9643C5.43264 11.9408 5.47978 11.9062 5.51949 11.8627C5.5592 11.8192 5.59069 11.7675 5.61219 11.7106C5.63368 11.6538 5.64474 11.5928 5.64474 11.5312V6.09375ZM7.7829 5.625C8.01895 5.625 8.21053 5.835 8.21053 6.09375V11.5312C8.21053 11.6556 8.16547 11.7748 8.08528 11.8627C8.00508 11.9506 7.89631 12 7.7829 12C7.66948 12 7.56071 11.9506 7.48051 11.8627C7.40032 11.7748 7.35526 11.6556 7.35526 11.5312V6.09375C7.35526 5.835 7.54684 5.625 7.7829 5.625Z" fill="#DC3545"/>
</svg>
