<svg width="18" height="18" viewBox="0 0 18 18" fill="none" xmlns="http://www.w3.org/2000/svg">
<path d="M10.8002 9.0002C10.8002 9.47758 10.6106 9.93542 10.273 10.273C9.93542 10.6106 9.47758 10.8002 9.0002 10.8002C8.52281 10.8002 8.06497 10.6106 7.7274 10.273C7.38984 9.93542 7.2002 9.47758 7.2002 9.0002C7.2002 8.52281 7.38984 8.06497 7.7274 7.7274C8.06497 7.38984 8.52281 7.2002 9.0002 7.2002C9.47758 7.2002 9.93542 7.38984 10.273 7.7274C10.6106 8.06497 10.8002 8.52281 10.8002 9.0002Z" stroke="white" stroke-linecap="round" stroke-linejoin="round"/>
<path d="M3 8.9998C3.96 6.5416 6.2016 4.7998 9 4.7998C11.7984 4.7998 14.04 6.5416 15 8.9998C14.04 11.458 11.7984 13.1998 9 13.1998C6.2016 13.1998 3.96 11.458 3 8.9998Z" stroke="white" stroke-linecap="round" stroke-linejoin="round"/>
</svg>
