<svg width="28" height="28" viewBox="0 0 28 28" fill="none" xmlns="http://www.w3.org/2000/svg">
<path d="M7.63219 5.83301H15.7009C16.2445 5.83301 16.6949 5.83301 17.0437 5.86567C17.3902 5.89834 17.7565 5.97067 18.0447 6.20867C18.439 6.53184 18.663 7.01717 18.6665 7.52584C18.6689 7.89451 18.5032 8.22584 18.3154 8.52684C18.1252 8.83017 17.8487 9.19534 17.5104 9.63984L14.4887 13.6228C14.2017 14.0008 14.1072 14.1292 14.0419 14.2657C13.9777 14.3988 13.9307 14.5395 13.9019 14.6845C13.8715 14.8362 13.8692 14.9995 13.8692 15.4802V20.4222C13.8692 20.673 13.8692 20.8982 13.854 21.079C13.8377 21.2575 13.8004 21.4978 13.6475 21.7055C13.5509 21.8386 13.4262 21.9487 13.2823 22.0282C13.1383 22.1076 12.9786 22.1544 12.8145 22.1652C12.5497 22.1815 12.3257 22.0753 12.1705 21.9878C12.0154 21.9003 11.8322 21.7743 11.6327 21.6367L10.4847 20.8433L10.4357 20.8095C10.2024 20.6497 9.99236 20.5062 9.83603 20.3078C9.69897 20.1343 9.59604 19.9364 9.53269 19.7245C9.46269 19.4818 9.4627 19.2263 9.4627 18.9358V15.4813C9.4627 15.0007 9.46153 14.8362 9.43119 14.6857C9.4024 14.5407 9.35536 14.4 9.2912 14.2668C9.22586 14.1303 9.13136 14.002 8.84436 13.624L5.86003 9.69234L5.85303 9.68067L5.82153 9.64101C5.5381 9.28144 5.26992 8.91011 5.0177 8.52801C4.82986 8.22817 4.66419 7.89567 4.66653 7.52701C4.66886 7.01834 4.89403 6.53301 5.28836 6.20867C5.57653 5.97184 5.94169 5.89951 6.28936 5.86684C6.63819 5.83301 7.08853 5.83301 7.63219 5.83301ZM7.4957 9.91634L9.77303 12.917L9.80569 12.9602C10.0484 13.2798 10.2187 13.5027 10.3412 13.7558C10.4501 13.9798 10.5286 14.2147 10.5769 14.4605C10.6305 14.7358 10.6305 15.0193 10.6305 15.4265V18.8752C10.6305 19.2602 10.6352 19.336 10.6539 19.3955C10.6741 19.4655 10.706 19.5277 10.7495 19.5822C10.7845 19.6265 10.837 19.6697 11.1474 19.8843L12.2744 20.6613C12.4692 20.7955 12.5975 20.883 12.6944 20.9425C12.7025 20.8223 12.7025 20.6555 12.7025 20.3977V15.4265C12.7025 15.0182 12.7025 14.7358 12.7562 14.4605C12.8052 14.2147 12.8837 13.9798 12.9919 13.7558C13.1144 13.5027 13.2847 13.2798 13.5285 12.959L13.56 12.917L15.8374 9.91634H7.4957ZM16.7217 8.74967C16.997 8.38684 17.1919 8.12201 17.326 7.90851C17.4894 7.64717 17.501 7.55267 17.4999 7.53167C17.5002 7.45121 17.4828 7.37166 17.4489 7.29867C17.415 7.22568 17.3655 7.16104 17.3039 7.10934C17.298 7.10467 17.2315 7.05567 16.9352 7.02767C16.647 6.99967 16.2515 6.99967 15.6705 6.99967H7.66253C7.08036 6.99967 6.68603 6.99967 6.39786 7.02767C6.10153 7.05567 6.03503 7.10467 6.0292 7.10934C5.96754 7.16104 5.91802 7.22568 5.88414 7.29867C5.85027 7.37166 5.83288 7.45121 5.83319 7.53167C5.83319 7.55267 5.8437 7.64834 6.00703 7.90851C6.1412 8.12201 6.33603 8.38684 6.61136 8.74967H16.7217ZM18.6665 12.2497C18.6665 12.095 18.728 11.9466 18.8374 11.8372C18.9468 11.7278 19.0952 11.6663 19.2499 11.6663H22.7499C22.9046 11.6663 23.0529 11.7278 23.1623 11.8372C23.2717 11.9466 23.3332 12.095 23.3332 12.2497C23.3332 12.4044 23.2717 12.5528 23.1623 12.6622C23.0529 12.7715 22.9046 12.833 22.7499 12.833H19.2499C19.0952 12.833 18.9468 12.7715 18.8374 12.6622C18.728 12.5528 18.6665 12.4044 18.6665 12.2497ZM16.9165 15.1663C16.9165 15.0116 16.978 14.8633 17.0874 14.7539C17.1968 14.6445 17.3452 14.583 17.4999 14.583H22.7499C22.9046 14.583 23.0529 14.6445 23.1623 14.7539C23.2717 14.8633 23.3332 15.0116 23.3332 15.1663C23.3332 15.3211 23.2717 15.4694 23.1623 15.5788C23.0529 15.6882 22.9046 15.7497 22.7499 15.7497H17.4999C17.3452 15.7497 17.1968 15.6882 17.0874 15.5788C16.978 15.4694 16.9165 15.3211 16.9165 15.1663ZM16.3332 18.083C16.3332 17.9283 16.3947 17.7799 16.504 17.6705C16.6134 17.5611 16.7618 17.4997 16.9165 17.4997H22.7499C22.9046 17.4997 23.0529 17.5611 23.1623 17.6705C23.2717 17.7799 23.3332 17.9283 23.3332 18.083C23.3332 18.2377 23.2717 18.3861 23.1623 18.4955C23.0529 18.6049 22.9046 18.6663 22.7499 18.6663H16.9165C16.7618 18.6663 16.6134 18.6049 16.504 18.4955C16.3947 18.3861 16.3332 18.2377 16.3332 18.083ZM16.3332 20.9997C16.3332 20.845 16.3947 20.6966 16.504 20.5872C16.6134 20.4778 16.7618 20.4163 16.9165 20.4163H19.8332C19.9879 20.4163 20.1363 20.4778 20.2457 20.5872C20.3551 20.6966 20.4165 20.845 20.4165 20.9997C20.4165 21.1544 20.3551 21.3028 20.2457 21.4122C20.1363 21.5215 19.9879 21.583 19.8332 21.583H16.9165C16.7618 21.583 16.6134 21.5215 16.504 21.4122C16.3947 21.3028 16.3332 21.1544 16.3332 20.9997Z" fill="#1A3D7C"/>
</svg>
