<svg width="20" height="20" viewBox="0 0 20 20" fill="none" xmlns="http://www.w3.org/2000/svg">
<path d="M5.83341 5.41634H13.9584C15.7142 5.41634 16.5917 5.41634 17.2226 5.83801C17.4953 6.02029 17.7295 6.25446 17.9117 6.52717C18.2801 7.07801 18.3267 7.81801 18.3326 9.16634M10.0001 5.41634L9.47258 4.36051C9.03508 3.48551 8.63508 2.60551 7.66591 2.24217C7.24175 2.08301 6.75675 2.08301 5.78675 2.08301C4.27341 2.08301 3.51675 2.08301 2.94841 2.39967C2.54348 2.62562 2.20936 2.95974 1.98341 3.36467C1.66675 3.93301 1.66675 4.68967 1.66675 6.20301V8.74967C1.66675 12.678 1.66675 14.6422 2.88675 15.8622C3.97008 16.9455 5.64008 17.068 8.75008 17.0813H9.16675M15.0001 17.9163V16.8447C14.5471 16.8478 14.1001 16.7411 13.6975 16.5335C13.2949 16.326 12.9486 16.0238 12.6884 15.653M15.0001 16.8438C15.4531 16.847 15.9 16.7402 16.3027 16.5327C16.7053 16.3251 17.0516 16.023 17.3117 15.6522M15.0001 11.4872C15.9642 11.4872 16.8134 11.9605 17.3117 12.6788C17.6154 13.1148 17.7781 13.6342 17.7781 14.1655C17.7781 14.6968 17.6154 15.2153 17.3117 15.6513L18.3334 16.308M12.6884 12.6805C12.9486 12.3097 13.2949 12.0076 13.6975 11.8C14.1001 11.5924 14.5471 11.4857 15.0001 11.4888V10.4163M18.3334 12.0238L17.3117 12.6805M11.6667 16.308L12.6884 15.6513C12.3848 15.2153 12.222 14.6968 12.222 14.1655C12.222 13.6342 12.3848 13.1157 12.6884 12.6797M11.6667 12.0247L12.6884 12.6813" stroke="#1A3D7C" stroke-width="1.5" stroke-linecap="round" stroke-linejoin="round"/>
</svg>
