<svg width="20" height="20" viewBox="0 0 20 20" fill="none" xmlns="http://www.w3.org/2000/svg">
<path d="M5.83317 5.41634H13.9582C15.714 5.41634 16.5915 5.41634 17.2223 5.83801C17.495 6.02029 17.7292 6.25446 17.9115 6.52717C18.2798 7.07801 18.3265 7.81801 18.3323 9.16634M9.99984 5.41634L9.47234 4.36051C9.03484 3.48551 8.63484 2.60551 7.66567 2.24217C7.2415 2.08301 6.7565 2.08301 5.7865 2.08301C4.27317 2.08301 3.5165 2.08301 2.94817 2.39967C2.54323 2.62562 2.20912 2.95974 1.98317 3.36467C1.6665 3.93301 1.6665 4.68967 1.6665 6.20301V8.74967C1.6665 12.678 1.6665 14.6422 2.8865 15.8622C3.96984 16.9455 5.63984 17.068 8.74984 17.0813H9.1665M14.9998 17.9163V16.8447C14.5469 16.8478 14.0999 16.7411 13.6973 16.5335C13.2946 16.326 12.9484 16.0238 12.6882 15.653M14.9998 16.8438C15.4528 16.847 15.8998 16.7402 16.3024 16.5327C16.7051 16.3251 17.0513 16.023 17.3115 15.6522M14.9998 11.4872C15.964 11.4872 16.8132 11.9605 17.3115 12.6788C17.6151 13.1148 17.7779 13.6342 17.7779 14.1655C17.7779 14.6968 17.6151 15.2153 17.3115 15.6513L18.3332 16.308M12.6882 12.6805C12.9484 12.3097 13.2946 12.0076 13.6973 11.8C14.0999 11.5924 14.5469 11.4857 14.9998 11.4888V10.4163M18.3332 12.0238L17.3115 12.6805M11.6665 16.308L12.6882 15.6513C12.3845 15.2153 12.2218 14.6968 12.2218 14.1655C12.2218 13.6342 12.3845 13.1157 12.6882 12.6797M11.6665 12.0247L12.6882 12.6813" stroke="#2F74FA" stroke-width="1.5" stroke-linecap="round" stroke-linejoin="round"/>
</svg>
