<svg width="37" height="33" viewBox="0 0 37 33" fill="none" xmlns="http://www.w3.org/2000/svg">
<path d="M31.61 5.34141H25.1895V2.64404C25.1895 1.23837 24.0497 0.0986328 22.644 0.0986328H14.5139C13.1083 0.0986328 11.9685 1.23837 11.9685 2.64404V5.34141H5.54803C2.77468 5.34141 0.533203 7.58289 0.533203 10.3562V27.7182C0.533203 30.4915 2.77468 32.733 5.54803 32.733H31.6479C34.4213 32.733 36.6628 30.4915 36.6628 27.7182V10.3562C36.6248 7.58289 34.3833 5.34141 31.61 5.34141ZM13.9061 2.64404C13.9061 2.30212 14.172 2.03618 14.5139 2.03618H22.644C22.986 2.03618 23.2519 2.30212 23.2519 2.64404V5.34141H13.9061V2.64404ZM5.54803 7.27896H31.6479C33.3196 7.27896 34.7252 8.64664 34.7252 10.3562V14.2313C31.1921 15.2951 27.051 15.9789 22.72 16.2449V15.4091C22.72 14.3073 21.8082 13.3955 20.7065 13.3955H16.5275C15.4257 13.3955 14.5139 14.3073 14.5139 15.4091V16.2449C10.183 15.9789 6.04192 15.2951 2.50874 14.2313V10.3562C2.47075 8.64664 3.83843 7.27896 5.54803 7.27896ZM20.7445 15.4091V19.0942C20.7445 19.1322 20.7065 19.1702 20.6685 19.1702L16.4515 19.0942L16.5275 15.2951L20.7445 15.4091ZM31.61 30.7575H5.54803C3.87642 30.7575 2.47075 29.3898 2.47075 27.6802V16.2449C6.04192 17.2706 10.145 17.9165 14.476 18.1824V19.0942C14.476 20.1959 15.3877 21.1077 16.4895 21.1077H20.5925C21.6943 21.1077 22.6061 20.1959 22.6061 19.0942V18.1824C26.975 17.9165 31.1161 17.2706 34.6872 16.2449V27.7182C34.6872 29.3898 33.3196 30.7575 31.61 30.7575Z" fill="#2F74FA"/>
</svg>
