<?xml version="1.0" encoding="utf-8"?>
<!-- Generator: Adobe Illustrator 24.2.3, SVG Export Plug-In . SVG Version: 6.00 Build 0)  -->
<svg version="1.1" id="Layer_1" xmlns="http://www.w3.org/2000/svg" xmlns:xlink="http://www.w3.org/1999/xlink" x="0px" y="0px"
	 viewBox="0 0 15 15" style="enable-background:new 0 0 15 15;" xml:space="preserve">
<style type="text/css">
	.st0{fill:#1A3D7C;}
</style>
<g>
	<path class="st0" d="M14.6,13.8l-2.8-2.8c0.9-1,1.4-2.3,1.5-3.7c0-0.2,0-0.4,0-0.5c0-3.6-2.9-6.5-6.5-6.5c-3.6,0-6.5,2.9-6.5,6.5
		c0,3.6,2.9,6.5,6.5,6.5c1.5,0,3-0.5,4.1-1.5l2.8,2.8c0.1,0.1,0.3,0.2,0.4,0.2h0c0.1,0,0.3-0.1,0.4-0.2c0.1-0.1,0.2-0.2,0.2-0.4
		C14.8,14,14.7,13.9,14.6,13.8z M6.8,12c-2.9,0-5.3-2.4-5.3-5.3c0-2.9,2.4-5.3,5.3-5.3s5.3,2.4,5.3,5.3C12.1,9.7,9.7,12,6.8,12z"/>
</g>
</svg>
