<svg width="19" height="19" viewBox="0 0 19 19" fill="none" xmlns="http://www.w3.org/2000/svg">
<path d="M16.1577 16.676C16.0297 16.6852 15.8981 16.6408 15.7872 16.5298L12.8837 13.6263C11.7673 14.5633 10.3238 15.1262 8.76456 15.1262C5.23391 15.1262 2.36289 12.2552 2.36289 8.72452C2.36289 5.19387 5.23391 2.32285 8.76456 2.32285C12.2952 2.32285 15.1662 5.19387 15.1662 8.72452M16.1577 16.676L15.0662 8.72452M16.1577 16.676C16.283 16.667 16.3977 16.6073 16.4825 16.5231C16.5673 16.439 16.6275 16.3249 16.6367 16.2004C16.6461 16.0732 16.6015 15.9428 16.4904 15.8339C16.4902 15.8338 16.4901 15.8336 16.4899 15.8335L13.5886 12.9244M16.1577 16.676L13.4512 12.9283M15.1662 8.72452H15.0662M15.1662 8.72452C15.1662 8.72447 15.1662 8.72442 15.1662 8.72437L15.0662 8.72452M15.1662 8.72452C15.1685 10.2708 14.6069 11.7637 13.5886 12.9244M15.0662 8.72452C15.0686 10.2777 14.4929 11.7762 13.4512 12.9283M13.5886 12.9244L13.522 12.8577L13.4512 12.9283M13.5886 12.9244C13.5677 12.9482 13.5467 12.9718 13.5254 12.9953L13.4512 12.9283M3.35377 8.72452C3.35377 5.73984 5.78682 3.31452 8.76377 3.31452C11.7485 3.31452 14.1738 5.73975 14.1738 8.72452C14.1738 11.7093 11.7485 14.1345 8.76377 14.1345C5.78682 14.1345 3.35377 11.7092 3.35377 8.72452Z" fill="#1A3D7C" stroke="#1A3D7C" stroke-width="0.2"/>
</svg>
