<svg width="21" height="21" viewBox="0 0 21 21" fill="none" xmlns="http://www.w3.org/2000/svg">
<path d="M7.875 7L13.125 14M18.1913 8.008C18.8983 9.22425 19.25 9.83237 19.25 10.5C19.25 11.1676 18.8974 11.7757 18.1913 12.992L16.5086 15.8935C15.806 17.1045 15.4543 17.71 14.8768 18.0425C14.2993 18.375 13.5975 18.375 12.1949 18.375H8.80513C7.4025 18.375 6.70075 18.375 6.12325 18.0425C5.54575 17.71 5.194 17.1045 4.49138 15.8935L2.80875 12.992C2.10263 11.7757 1.75 11.1676 1.75 10.5C1.75 9.83237 2.10263 9.22425 2.80875 8.008L4.49138 5.1065C5.194 3.8955 5.54575 3.29 6.12325 2.9575C6.70075 2.625 7.4025 2.625 8.80513 2.625H12.1949C13.5975 2.625 14.2993 2.625 14.8768 2.9575C15.4543 3.29 15.806 3.8955 16.5086 5.1065L18.1913 8.008Z" stroke="#1A3D7C" stroke-width="1.5" stroke-linecap="round" stroke-linejoin="round"/>
</svg>
