<svg width="18" height="17" viewBox="0 0 18 17" fill="none" xmlns="http://www.w3.org/2000/svg">
<path fill-rule="evenodd" clip-rule="evenodd" d="M9.00004 0.885742C8.05521 0.885742 7.14907 1.24022 6.48097 1.87121C5.81288 2.50219 5.43754 3.35798 5.43754 4.25033C5.43754 5.14267 5.81288 5.99846 6.48097 6.62944C7.14907 7.26043 8.05521 7.61491 9.00004 7.61491C9.94488 7.61491 10.851 7.26043 11.5191 6.62944C12.1872 5.99846 12.5625 5.14267 12.5625 4.25033C12.5625 3.35798 12.1872 2.50219 11.5191 1.87121C10.851 1.24022 9.94488 0.885742 9.00004 0.885742ZM6.56254 4.25033C6.56254 3.63977 6.81935 3.05423 7.27647 2.62251C7.73359 2.19078 8.35358 1.94824 9.00004 1.94824C9.64651 1.94824 10.2665 2.19078 10.7236 2.62251C11.1807 3.05423 11.4375 3.63977 11.4375 4.25033C11.4375 4.86088 11.1807 5.44642 10.7236 5.87814C10.2665 6.30987 9.64651 6.55241 9.00004 6.55241C8.35358 6.55241 7.73359 6.30987 7.27647 5.87814C6.81935 5.44642 6.56254 4.86088 6.56254 4.25033ZM9.00004 8.67741C7.26529 8.67741 5.66629 9.04999 4.48204 9.67899C3.31504 10.2995 2.43754 11.2387 2.43754 12.3962V12.4684C2.43679 13.2915 2.43604 14.3242 3.39529 15.0623C3.86704 15.425 4.52779 15.6835 5.42029 15.8535C6.31429 16.0249 7.48054 16.1149 9.00004 16.1149C10.5195 16.1149 11.685 16.0249 12.5805 15.8535C13.473 15.6835 14.133 15.425 14.6055 15.0623C15.5648 14.3242 15.5633 13.2915 15.5625 12.4684V12.3962C15.5625 11.2387 14.685 10.2995 13.5188 9.67899C12.3338 9.04999 10.7355 8.67741 9.00004 8.67741ZM3.56254 12.3962C3.56254 11.7934 4.02904 11.1389 5.03329 10.6055C6.02029 10.0813 7.42129 9.73991 9.00079 9.73991C10.5788 9.73991 11.9798 10.0813 12.9668 10.6055C13.9718 11.1389 14.4375 11.7934 14.4375 12.3962C14.4375 13.3227 14.4075 13.844 13.8945 14.2378C13.617 14.4517 13.152 14.6607 12.357 14.8123C11.5643 14.9639 10.4805 15.0524 9.00004 15.0524C7.51954 15.0524 6.43504 14.9639 5.64304 14.8123C4.84804 14.6607 4.38304 14.4517 4.10554 14.2385C3.59254 13.844 3.56254 13.3227 3.56254 12.3962Z" fill="black"/>
</svg>
