<svg width="26" height="26" viewBox="0 0 26 26" fill="none" xmlns="http://www.w3.org/2000/svg">
<path d="M12.078 4.05028C12.2128 3.91554 12.3956 3.83984 12.5862 3.83984C12.7768 3.83984 12.9596 3.91554 13.0943 4.05028L15.9693 6.92528C16.1041 7.06007 16.1798 7.24285 16.1798 7.43344C16.1798 7.62403 16.1041 7.80681 15.9693 7.9416L13.0943 10.8166C12.9588 10.9475 12.7772 11.02 12.5888 11.0183C12.4003 11.0167 12.22 10.9411 12.0868 10.8078C11.9535 10.6746 11.8779 10.4943 11.8763 10.3059C11.8747 10.1174 11.9471 9.93584 12.078 9.80028L13.7146 8.16369C13.5785 8.15602 13.442 8.15219 13.3049 8.15219C9.33528 8.15219 6.11743 11.37 6.11743 15.3397C6.11743 19.3093 9.33528 22.5272 13.3049 22.5272C17.0324 22.5272 20.0971 19.6903 20.4565 16.0577C20.496 15.6624 20.8144 15.3397 21.2112 15.3397C21.6079 15.3397 21.9328 15.6631 21.9005 16.0584C21.5353 20.4859 17.8266 23.9647 13.3049 23.9647C8.54178 23.9647 4.67993 20.1028 4.67993 15.3397C4.67993 10.5765 8.54178 6.71469 13.3049 6.71469C13.4496 6.71469 13.5934 6.71828 13.7362 6.72547L12.078 5.0666C11.9433 4.93181 11.8676 4.74903 11.8676 4.55844C11.8676 4.36785 11.9433 4.18507 12.078 4.05028ZM16.6881 12.6753C16.8228 12.8101 16.8985 12.9929 16.8985 13.1834C16.8985 13.374 16.8228 13.5568 16.6881 13.6916L12.735 17.6447C12.6002 17.7795 12.4174 17.8552 12.2268 17.8552C12.0362 17.8552 11.8534 17.7795 11.7186 17.6447L9.92178 15.8478C9.79085 15.7123 9.7184 15.5307 9.72004 15.3423C9.72168 15.1538 9.79727 14.9736 9.93053 14.8403C10.0638 14.707 10.2441 14.6314 10.4325 14.6298C10.621 14.6282 10.8025 14.7006 10.9381 14.8315L12.2268 16.1203L15.6718 12.6753C15.8066 12.5405 15.9893 12.4648 16.1799 12.4648C16.3705 12.4648 16.5533 12.5405 16.6881 12.6753Z" fill="#1A3D7C"/>
</svg>
