<svg width="23" height="23" viewBox="0 0 23 23" fill="none" xmlns="http://www.w3.org/2000/svg">
<path d="M11.0778 2.05028C11.2126 1.91554 11.3953 1.83984 11.5859 1.83984C11.7765 1.83984 11.9593 1.91554 12.0941 2.05028L14.9691 4.92528C15.1038 5.06007 15.1795 5.24285 15.1795 5.43344C15.1795 5.62403 15.1038 5.80681 14.9691 5.9416L12.0941 8.8166C11.9585 8.94752 11.777 9.01997 11.5885 9.01833C11.4001 9.01669 11.2198 8.9411 11.0865 8.80784C10.9533 8.67458 10.8777 8.49431 10.876 8.30585C10.8744 8.1174 10.9469 7.93584 11.0778 7.80028L12.7144 6.16369C12.5783 6.15602 12.4417 6.15219 12.3047 6.15219C8.33503 6.15219 5.11719 9.37003 5.11719 13.3397C5.11719 17.3093 8.33503 20.5272 12.3047 20.5272C16.0321 20.5272 19.0969 17.6903 19.4562 14.0577C19.4958 13.6624 19.8142 13.3397 20.2109 13.3397C20.6077 13.3397 20.9326 13.6631 20.9002 14.0584C20.5351 18.4859 16.8263 21.9647 12.3047 21.9647C7.54153 21.9647 3.67969 18.1028 3.67969 13.3397C3.67969 8.57653 7.54153 4.71469 12.3047 4.71469C12.4494 4.71469 12.5931 4.71828 12.7359 4.72547L11.0778 3.0666C10.943 2.93181 10.8673 2.74903 10.8673 2.55844C10.8673 2.36785 10.943 2.18507 11.0778 2.05028ZM15.6878 10.6753C15.8226 10.8101 15.8983 10.9929 15.8983 11.1834C15.8983 11.374 15.8226 11.5568 15.6878 11.6916L11.7347 15.6447C11.5999 15.7795 11.4171 15.8552 11.2266 15.8552C11.036 15.8552 10.8532 15.7795 10.7184 15.6447L8.92153 13.8478C8.79061 13.7123 8.71816 13.5307 8.7198 13.3423C8.72143 13.1538 8.79702 12.9736 8.93029 12.8403C9.06355 12.707 9.24382 12.6314 9.43227 12.6298C9.62073 12.6282 9.80229 12.7006 9.93784 12.8315L11.2266 14.1203L14.6715 10.6753C14.8063 10.5405 14.9891 10.4648 15.1797 10.4648C15.3703 10.4648 15.5531 10.5405 15.6878 10.6753Z" fill="#2F74FA"/>
</svg>
